<mxfile host="app.diagrams.net" modified="2021-03-01T17:06:41.243Z" agent="5.0 (Windows NT 10.0; Win64; x64) AppleWebKit/537.36 (KHTML, like Gecko) Chrome/88.0.4324.182 Safari/537.36" etag="jR_mkHylnU9ojv8FnS3C" version="14.4.3" type="github">
  <diagram id="RUxofKRy_c-4PL5xseFD" name="Page-1">
    <mxGraphModel dx="2370" dy="1228" grid="1" gridSize="10" guides="1" tooltips="1" connect="1" arrows="1" fold="1" page="1" pageScale="1" pageWidth="3300" pageHeight="2339" math="0" shadow="0">
      <root>
        <mxCell id="0" />
        <mxCell id="1" parent="0" />
        <mxCell id="QxhkhDO3bu-SJ8pNpTHq-2" value="Actor" style="shape=umlActor;verticalLabelPosition=bottom;verticalAlign=top;html=1;outlineConnect=0;" vertex="1" parent="1">
          <mxGeometry x="290" y="260" width="60" height="130" as="geometry" />
        </mxCell>
        <mxCell id="QxhkhDO3bu-SJ8pNpTHq-3" value="" style="endArrow=classic;html=1;exitX=0.5;exitY=0;exitDx=0;exitDy=0;" edge="1" parent="1" source="QxhkhDO3bu-SJ8pNpTHq-84">
          <mxGeometry width="50" height="50" relative="1" as="geometry">
            <mxPoint x="470" y="260" as="sourcePoint" />
            <mxPoint x="580" y="260" as="targetPoint" />
            <Array as="points">
              <mxPoint x="435" y="260" />
            </Array>
          </mxGeometry>
        </mxCell>
        <mxCell id="QxhkhDO3bu-SJ8pNpTHq-5" value="получение картинки с вебкамеры (WINAPI?\LINUXAPI)" style="rounded=1;whiteSpace=wrap;html=1;" vertex="1" parent="1">
          <mxGeometry x="580" y="237.5" width="130" height="72.5" as="geometry" />
        </mxCell>
        <mxCell id="QxhkhDO3bu-SJ8pNpTHq-7" value="Компьютер подключенный к вебкамере" style="rounded=0;whiteSpace=wrap;html=1;" vertex="1" parent="1">
          <mxGeometry x="580" y="190" width="240" height="50" as="geometry" />
        </mxCell>
        <mxCell id="QxhkhDO3bu-SJ8pNpTHq-8" value="bitmap" style="rounded=1;whiteSpace=wrap;html=1;" vertex="1" parent="1">
          <mxGeometry x="780" y="253.75" width="110" height="40" as="geometry" />
        </mxCell>
        <mxCell id="QxhkhDO3bu-SJ8pNpTHq-9" value="" style="endArrow=classic;html=1;entryX=0;entryY=0.5;entryDx=0;entryDy=0;exitX=1;exitY=0.5;exitDx=0;exitDy=0;" edge="1" parent="1" source="QxhkhDO3bu-SJ8pNpTHq-5" target="QxhkhDO3bu-SJ8pNpTHq-8">
          <mxGeometry width="50" height="50" relative="1" as="geometry">
            <mxPoint x="580" y="390" as="sourcePoint" />
            <mxPoint x="630" y="340" as="targetPoint" />
            <Array as="points">
              <mxPoint x="720" y="260" />
              <mxPoint x="740" y="270" />
            </Array>
          </mxGeometry>
        </mxCell>
        <mxCell id="QxhkhDO3bu-SJ8pNpTHq-57" style="edgeStyle=orthogonalEdgeStyle;rounded=0;orthogonalLoop=1;jettySize=auto;html=1;exitX=1;exitY=0.5;exitDx=0;exitDy=0;entryX=0;entryY=0.5;entryDx=0;entryDy=0;strokeWidth=1;" edge="1" parent="1" source="QxhkhDO3bu-SJ8pNpTHq-10" target="QxhkhDO3bu-SJ8pNpTHq-55">
          <mxGeometry relative="1" as="geometry" />
        </mxCell>
        <mxCell id="QxhkhDO3bu-SJ8pNpTHq-10" value="распознование кр кода" style="rounded=1;whiteSpace=wrap;html=1;" vertex="1" parent="1">
          <mxGeometry x="940" y="260" width="110" height="40" as="geometry" />
        </mxCell>
        <mxCell id="QxhkhDO3bu-SJ8pNpTHq-11" value="" style="endArrow=classic;html=1;entryX=0;entryY=0.5;entryDx=0;entryDy=0;exitX=1;exitY=0.5;exitDx=0;exitDy=0;" edge="1" parent="1" source="QxhkhDO3bu-SJ8pNpTHq-8" target="QxhkhDO3bu-SJ8pNpTHq-10">
          <mxGeometry width="50" height="50" relative="1" as="geometry">
            <mxPoint x="560" y="500" as="sourcePoint" />
            <mxPoint x="610" y="450" as="targetPoint" />
            <Array as="points">
              <mxPoint x="890" y="280" />
              <mxPoint x="910" y="280" />
            </Array>
          </mxGeometry>
        </mxCell>
        <mxCell id="QxhkhDO3bu-SJ8pNpTHq-16" value="значение временного ключа&lt;br&gt;(TOTP)" style="rounded=1;whiteSpace=wrap;html=1;" vertex="1" parent="1">
          <mxGeometry x="1180" y="245" width="110" height="50" as="geometry" />
        </mxCell>
        <mxCell id="QxhkhDO3bu-SJ8pNpTHq-17" value="ID пользователя" style="rounded=1;whiteSpace=wrap;html=1;" vertex="1" parent="1">
          <mxGeometry x="1180" y="310" width="110" height="40" as="geometry" />
        </mxCell>
        <mxCell id="QxhkhDO3bu-SJ8pNpTHq-18" value="" style="endArrow=classic;html=1;" edge="1" parent="1">
          <mxGeometry width="50" height="50" relative="1" as="geometry">
            <mxPoint x="1290" y="325" as="sourcePoint" />
            <mxPoint x="1350" y="435" as="targetPoint" />
            <Array as="points">
              <mxPoint x="1331" y="325" />
              <mxPoint x="1330.5" y="435" />
            </Array>
          </mxGeometry>
        </mxCell>
        <mxCell id="QxhkhDO3bu-SJ8pNpTHq-22" style="edgeStyle=orthogonalEdgeStyle;rounded=0;orthogonalLoop=1;jettySize=auto;html=1;entryX=0;entryY=0.5;entryDx=0;entryDy=0;" edge="1" parent="1" target="QxhkhDO3bu-SJ8pNpTHq-21">
          <mxGeometry relative="1" as="geometry">
            <mxPoint x="1550" y="430" as="sourcePoint" />
          </mxGeometry>
        </mxCell>
        <mxCell id="QxhkhDO3bu-SJ8pNpTHq-50" style="edgeStyle=orthogonalEdgeStyle;rounded=0;orthogonalLoop=1;jettySize=auto;html=1;exitX=1;exitY=0.5;exitDx=0;exitDy=0;entryX=0;entryY=0.5;entryDx=0;entryDy=0;strokeWidth=1;" edge="1" parent="1" source="QxhkhDO3bu-SJ8pNpTHq-19" target="QxhkhDO3bu-SJ8pNpTHq-49">
          <mxGeometry relative="1" as="geometry" />
        </mxCell>
        <mxCell id="QxhkhDO3bu-SJ8pNpTHq-19" value="запрос на базу данных (получаем PRIVATE KEY по ID)" style="rounded=1;whiteSpace=wrap;html=1;" vertex="1" parent="1">
          <mxGeometry x="1350" y="395" width="130" height="70" as="geometry" />
        </mxCell>
        <mxCell id="QxhkhDO3bu-SJ8pNpTHq-21" value="делаем временный ключ (хэш) на основе текущего времени и PRIVATE KEY" style="rounded=1;whiteSpace=wrap;html=1;" vertex="1" parent="1">
          <mxGeometry x="1610" y="395" width="130" height="70" as="geometry" />
        </mxCell>
        <mxCell id="QxhkhDO3bu-SJ8pNpTHq-25" value="значение временного ключа&lt;br&gt;(TOTP)" style="rounded=1;whiteSpace=wrap;html=1;" vertex="1" parent="1">
          <mxGeometry x="1630" y="245" width="110" height="50" as="geometry" />
        </mxCell>
        <mxCell id="QxhkhDO3bu-SJ8pNpTHq-36" style="edgeStyle=orthogonalEdgeStyle;rounded=0;orthogonalLoop=1;jettySize=auto;html=1;exitX=0.5;exitY=1;exitDx=0;exitDy=0;" edge="1" parent="1" source="QxhkhDO3bu-SJ8pNpTHq-28" target="QxhkhDO3bu-SJ8pNpTHq-34">
          <mxGeometry relative="1" as="geometry" />
        </mxCell>
        <mxCell id="QxhkhDO3bu-SJ8pNpTHq-28" value="временный ключ пользователя&amp;nbsp;&lt;br&gt;=&lt;br&gt;временный ключ полученный системой" style="rhombus;whiteSpace=wrap;html=1;" vertex="1" parent="1">
          <mxGeometry x="1810" y="285" width="320" height="140" as="geometry" />
        </mxCell>
        <mxCell id="QxhkhDO3bu-SJ8pNpTHq-29" value="" style="endArrow=classic;html=1;entryX=0.5;entryY=0;entryDx=0;entryDy=0;" edge="1" parent="1" target="QxhkhDO3bu-SJ8pNpTHq-28">
          <mxGeometry width="50" height="50" relative="1" as="geometry">
            <mxPoint x="1760" y="355" as="sourcePoint" />
            <mxPoint x="1670" y="315" as="targetPoint" />
            <Array as="points">
              <mxPoint x="1760" y="215" />
              <mxPoint x="1970" y="215" />
            </Array>
          </mxGeometry>
        </mxCell>
        <mxCell id="QxhkhDO3bu-SJ8pNpTHq-30" value="" style="endArrow=classic;html=1;" edge="1" parent="1">
          <mxGeometry width="50" height="50" relative="1" as="geometry">
            <mxPoint x="1670" y="395" as="sourcePoint" />
            <mxPoint x="1760" y="355" as="targetPoint" />
            <Array as="points">
              <mxPoint x="1670" y="355" />
            </Array>
          </mxGeometry>
        </mxCell>
        <mxCell id="QxhkhDO3bu-SJ8pNpTHq-31" value="" style="endArrow=classic;html=1;exitX=0.5;exitY=1;exitDx=0;exitDy=0;" edge="1" parent="1" source="QxhkhDO3bu-SJ8pNpTHq-25">
          <mxGeometry width="50" height="50" relative="1" as="geometry">
            <mxPoint x="1580" y="355" as="sourcePoint" />
            <mxPoint x="1760" y="355" as="targetPoint" />
            <Array as="points">
              <mxPoint x="1685" y="355" />
            </Array>
          </mxGeometry>
        </mxCell>
        <mxCell id="QxhkhDO3bu-SJ8pNpTHq-32" value="" style="endArrow=classic;html=1;exitX=1;exitY=0.5;exitDx=0;exitDy=0;" edge="1" parent="1" source="QxhkhDO3bu-SJ8pNpTHq-28">
          <mxGeometry width="50" height="50" relative="1" as="geometry">
            <mxPoint x="2120" y="335" as="sourcePoint" />
            <mxPoint x="2240" y="355" as="targetPoint" />
          </mxGeometry>
        </mxCell>
        <mxCell id="QxhkhDO3bu-SJ8pNpTHq-46" style="edgeStyle=orthogonalEdgeStyle;rounded=0;orthogonalLoop=1;jettySize=auto;html=1;exitX=1;exitY=0.5;exitDx=0;exitDy=0;entryX=1;entryY=0.5;entryDx=0;entryDy=0;strokeWidth=5;fillColor=#f8cecc;strokeColor=#b85450;" edge="1" parent="1" source="QxhkhDO3bu-SJ8pNpTHq-33" target="QxhkhDO3bu-SJ8pNpTHq-44">
          <mxGeometry relative="1" as="geometry">
            <Array as="points">
              <mxPoint x="2310" y="400" />
              <mxPoint x="2310" y="700" />
              <mxPoint x="880" y="700" />
              <mxPoint x="880" y="525" />
            </Array>
          </mxGeometry>
        </mxCell>
        <mxCell id="QxhkhDO3bu-SJ8pNpTHq-33" value="вход не выполнен" style="rounded=1;whiteSpace=wrap;html=1;" vertex="1" parent="1">
          <mxGeometry x="2240" y="325" width="120" height="60" as="geometry" />
        </mxCell>
        <mxCell id="QxhkhDO3bu-SJ8pNpTHq-45" style="edgeStyle=orthogonalEdgeStyle;rounded=0;orthogonalLoop=1;jettySize=auto;html=1;exitX=0.5;exitY=1;exitDx=0;exitDy=0;entryX=1;entryY=0.5;entryDx=0;entryDy=0;strokeWidth=5;fillColor=#d5e8d4;strokeColor=#82b366;startArrow=oval;startFill=1;jumpStyle=arc;" edge="1" parent="1" source="QxhkhDO3bu-SJ8pNpTHq-34" target="QxhkhDO3bu-SJ8pNpTHq-41">
          <mxGeometry relative="1" as="geometry">
            <Array as="points">
              <mxPoint x="1970" y="630" />
              <mxPoint x="1900" y="630" />
              <mxPoint x="1900" y="640" />
              <mxPoint x="1050" y="640" />
              <mxPoint x="1050" y="400" />
            </Array>
          </mxGeometry>
        </mxCell>
        <mxCell id="QxhkhDO3bu-SJ8pNpTHq-34" value="вход выполнен" style="rounded=1;whiteSpace=wrap;html=1;" vertex="1" parent="1">
          <mxGeometry x="1910" y="515" width="120" height="60" as="geometry" />
        </mxCell>
        <mxCell id="QxhkhDO3bu-SJ8pNpTHq-37" value="да" style="text;html=1;strokeColor=none;fillColor=none;align=center;verticalAlign=middle;whiteSpace=wrap;rounded=0;" vertex="1" parent="1">
          <mxGeometry x="1970" y="425" width="40" height="20" as="geometry" />
        </mxCell>
        <mxCell id="QxhkhDO3bu-SJ8pNpTHq-38" value="нет" style="text;html=1;strokeColor=none;fillColor=none;align=center;verticalAlign=middle;whiteSpace=wrap;rounded=0;" vertex="1" parent="1">
          <mxGeometry x="2130" y="335" width="40" height="20" as="geometry" />
        </mxCell>
        <mxCell id="QxhkhDO3bu-SJ8pNpTHq-92" style="edgeStyle=orthogonalEdgeStyle;rounded=0;jumpStyle=arc;orthogonalLoop=1;jettySize=auto;html=1;exitX=0;exitY=0.5;exitDx=0;exitDy=0;entryX=0;entryY=0.5;entryDx=0;entryDy=0;startArrow=oval;startFill=1;strokeWidth=1;" edge="1" parent="1" source="QxhkhDO3bu-SJ8pNpTHq-41" target="QxhkhDO3bu-SJ8pNpTHq-90">
          <mxGeometry relative="1" as="geometry" />
        </mxCell>
        <mxCell id="QxhkhDO3bu-SJ8pNpTHq-41" value="Турникет открылся" style="rounded=1;whiteSpace=wrap;html=1;fillColor=#d5e8d4;strokeColor=#82b366;" vertex="1" parent="1">
          <mxGeometry x="610" y="375" width="210" height="50" as="geometry" />
        </mxCell>
        <mxCell id="QxhkhDO3bu-SJ8pNpTHq-93" style="edgeStyle=orthogonalEdgeStyle;rounded=0;jumpStyle=arc;orthogonalLoop=1;jettySize=auto;html=1;exitX=0;exitY=0.5;exitDx=0;exitDy=0;entryX=0;entryY=0.5;entryDx=0;entryDy=0;startArrow=oval;startFill=1;strokeWidth=1;" edge="1" parent="1" source="QxhkhDO3bu-SJ8pNpTHq-44" target="QxhkhDO3bu-SJ8pNpTHq-90">
          <mxGeometry relative="1" as="geometry" />
        </mxCell>
        <mxCell id="QxhkhDO3bu-SJ8pNpTHq-44" value="Сообщение об ошибке&lt;br&gt;(пользователь не найден , пароль не совпадает, сервер не отвечает и т.д)" style="rounded=1;whiteSpace=wrap;html=1;fillColor=#f8cecc;strokeColor=#b85450;" vertex="1" parent="1">
          <mxGeometry x="610" y="480" width="210" height="90" as="geometry" />
        </mxCell>
        <mxCell id="QxhkhDO3bu-SJ8pNpTHq-65" style="edgeStyle=orthogonalEdgeStyle;rounded=0;orthogonalLoop=1;jettySize=auto;html=1;exitX=0.5;exitY=1;exitDx=0;exitDy=0;strokeWidth=5;fillColor=#f8cecc;strokeColor=#b85450;" edge="1" parent="1" source="QxhkhDO3bu-SJ8pNpTHq-49">
          <mxGeometry relative="1" as="geometry">
            <mxPoint x="1540" y="520" as="targetPoint" />
          </mxGeometry>
        </mxCell>
        <mxCell id="QxhkhDO3bu-SJ8pNpTHq-49" value="ответ?" style="rhombus;whiteSpace=wrap;html=1;" vertex="1" parent="1">
          <mxGeometry x="1500" y="415" width="80" height="30" as="geometry" />
        </mxCell>
        <mxCell id="QxhkhDO3bu-SJ8pNpTHq-66" style="edgeStyle=orthogonalEdgeStyle;rounded=0;orthogonalLoop=1;jettySize=auto;html=1;exitX=1;exitY=0.5;exitDx=0;exitDy=0;strokeWidth=5;fillColor=#f8cecc;strokeColor=#b85450;" edge="1" parent="1" source="QxhkhDO3bu-SJ8pNpTHq-52">
          <mxGeometry relative="1" as="geometry">
            <mxPoint x="1770" y="520" as="targetPoint" />
          </mxGeometry>
        </mxCell>
        <mxCell id="QxhkhDO3bu-SJ8pNpTHq-52" value="ответ?" style="rhombus;whiteSpace=wrap;html=1;" vertex="1" parent="1">
          <mxGeometry x="1630" y="355" width="80" height="30" as="geometry" />
        </mxCell>
        <mxCell id="QxhkhDO3bu-SJ8pNpTHq-64" style="edgeStyle=orthogonalEdgeStyle;rounded=0;orthogonalLoop=1;jettySize=auto;html=1;exitX=0;exitY=0.5;exitDx=0;exitDy=0;strokeWidth=5;fillColor=#f8cecc;strokeColor=#b85450;" edge="1" parent="1" source="QxhkhDO3bu-SJ8pNpTHq-53">
          <mxGeometry relative="1" as="geometry">
            <mxPoint x="1180" y="520" as="targetPoint" />
          </mxGeometry>
        </mxCell>
        <mxCell id="QxhkhDO3bu-SJ8pNpTHq-53" value="ответ?" style="rhombus;whiteSpace=wrap;html=1;" vertex="1" parent="1">
          <mxGeometry x="1290" y="355" width="80" height="30" as="geometry" />
        </mxCell>
        <mxCell id="QxhkhDO3bu-SJ8pNpTHq-58" style="edgeStyle=orthogonalEdgeStyle;rounded=0;orthogonalLoop=1;jettySize=auto;html=1;exitX=1;exitY=0.5;exitDx=0;exitDy=0;strokeWidth=1;" edge="1" parent="1" source="QxhkhDO3bu-SJ8pNpTHq-55">
          <mxGeometry relative="1" as="geometry">
            <mxPoint x="1170" y="315.19047619047615" as="targetPoint" />
          </mxGeometry>
        </mxCell>
        <mxCell id="QxhkhDO3bu-SJ8pNpTHq-63" style="edgeStyle=orthogonalEdgeStyle;rounded=0;orthogonalLoop=1;jettySize=auto;html=1;exitX=0.5;exitY=1;exitDx=0;exitDy=0;strokeWidth=5;fillColor=#f8cecc;strokeColor=#b85450;" edge="1" parent="1" source="QxhkhDO3bu-SJ8pNpTHq-55">
          <mxGeometry relative="1" as="geometry">
            <mxPoint x="1110" y="520" as="targetPoint" />
          </mxGeometry>
        </mxCell>
        <mxCell id="QxhkhDO3bu-SJ8pNpTHq-55" value="распознан?" style="rhombus;whiteSpace=wrap;html=1;" vertex="1" parent="1">
          <mxGeometry x="1070" y="300" width="80" height="30" as="geometry" />
        </mxCell>
        <mxCell id="QxhkhDO3bu-SJ8pNpTHq-67" value="" style="endArrow=classic;html=1;strokeWidth=5;entryX=1;entryY=0.5;entryDx=0;entryDy=0;fillColor=#f8cecc;strokeColor=#b85450;jumpStyle=arc;" edge="1" parent="1" target="QxhkhDO3bu-SJ8pNpTHq-44">
          <mxGeometry width="50" height="50" relative="1" as="geometry">
            <mxPoint x="1800" y="525" as="sourcePoint" />
            <mxPoint x="1290" y="500" as="targetPoint" />
          </mxGeometry>
        </mxCell>
        <mxCell id="QxhkhDO3bu-SJ8pNpTHq-68" value="вебсайт (JS)" style="rounded=1;whiteSpace=wrap;html=1;" vertex="1" parent="1">
          <mxGeometry x="40" y="157.5" width="190" height="40" as="geometry" />
        </mxCell>
        <mxCell id="QxhkhDO3bu-SJ8pNpTHq-69" value="пользователь зашел в систему. Сайт безостановочно генерирует временные кр коды" style="rounded=1;whiteSpace=wrap;html=1;" vertex="1" parent="1">
          <mxGeometry x="40" y="197.5" width="200" height="82.5" as="geometry" />
        </mxCell>
        <mxCell id="QxhkhDO3bu-SJ8pNpTHq-70" value="private key" style="rounded=0;whiteSpace=wrap;html=1;" vertex="1" parent="1">
          <mxGeometry x="40" y="435" width="80" height="30" as="geometry" />
        </mxCell>
        <mxCell id="QxhkhDO3bu-SJ8pNpTHq-71" value="текущее время" style="rounded=0;whiteSpace=wrap;html=1;" vertex="1" parent="1">
          <mxGeometry x="40" y="395" width="80" height="30" as="geometry" />
        </mxCell>
        <mxCell id="QxhkhDO3bu-SJ8pNpTHq-73" value="" style="endArrow=classic;html=1;strokeWidth=1;" edge="1" parent="1">
          <mxGeometry width="50" height="50" relative="1" as="geometry">
            <mxPoint x="140" y="430" as="sourcePoint" />
            <mxPoint x="180" y="430" as="targetPoint" />
          </mxGeometry>
        </mxCell>
        <mxCell id="QxhkhDO3bu-SJ8pNpTHq-74" value="наша структура типо" style="rounded=0;whiteSpace=wrap;html=1;shadow=0;" vertex="1" parent="1">
          <mxGeometry x="180" y="405" width="90" height="45" as="geometry" />
        </mxCell>
        <mxCell id="QxhkhDO3bu-SJ8pNpTHq-75" value="ID" style="rounded=0;whiteSpace=wrap;html=1;" vertex="1" parent="1">
          <mxGeometry x="40" y="480" width="80" height="30" as="geometry" />
        </mxCell>
        <mxCell id="QxhkhDO3bu-SJ8pNpTHq-78" value="" style="endArrow=classic;html=1;strokeWidth=1;exitX=1;exitY=0.5;exitDx=0;exitDy=0;entryX=0;entryY=0.5;entryDx=0;entryDy=0;" edge="1" parent="1" source="QxhkhDO3bu-SJ8pNpTHq-74" target="QxhkhDO3bu-SJ8pNpTHq-79">
          <mxGeometry width="50" height="50" relative="1" as="geometry">
            <mxPoint x="270" y="470" as="sourcePoint" />
            <mxPoint x="320" y="420" as="targetPoint" />
            <Array as="points">
              <mxPoint x="280" y="428" />
            </Array>
          </mxGeometry>
        </mxCell>
        <mxCell id="QxhkhDO3bu-SJ8pNpTHq-87" style="edgeStyle=orthogonalEdgeStyle;rounded=0;orthogonalLoop=1;jettySize=auto;html=1;exitX=1;exitY=0.5;exitDx=0;exitDy=0;entryX=0.5;entryY=1;entryDx=0;entryDy=0;strokeWidth=1;" edge="1" parent="1" source="QxhkhDO3bu-SJ8pNpTHq-79" target="QxhkhDO3bu-SJ8pNpTHq-86">
          <mxGeometry relative="1" as="geometry" />
        </mxCell>
        <mxCell id="QxhkhDO3bu-SJ8pNpTHq-79" value="шифратор" style="rounded=1;whiteSpace=wrap;html=1;shadow=0;fillColor=#f5f5f5;strokeColor=#666666;fontColor=#333333;" vertex="1" parent="1">
          <mxGeometry x="300" y="445" width="90" height="25" as="geometry" />
        </mxCell>
        <mxCell id="QxhkhDO3bu-SJ8pNpTHq-84" value="уникальный кр код&lt;br&gt;(бинарный)" style="rounded=1;whiteSpace=wrap;html=1;shadow=0;fillColor=#dae8fc;strokeColor=#6c8ebf;" vertex="1" parent="1">
          <mxGeometry x="360" y="302.5" width="150" height="65" as="geometry" />
        </mxCell>
        <mxCell id="QxhkhDO3bu-SJ8pNpTHq-88" style="edgeStyle=orthogonalEdgeStyle;rounded=0;orthogonalLoop=1;jettySize=auto;html=1;exitX=0.5;exitY=0;exitDx=0;exitDy=0;entryX=0.5;entryY=1;entryDx=0;entryDy=0;strokeWidth=1;" edge="1" parent="1" source="QxhkhDO3bu-SJ8pNpTHq-86" target="QxhkhDO3bu-SJ8pNpTHq-84">
          <mxGeometry relative="1" as="geometry" />
        </mxCell>
        <mxCell id="QxhkhDO3bu-SJ8pNpTHq-86" value="QR код" style="rounded=1;whiteSpace=wrap;html=1;shadow=0;" vertex="1" parent="1">
          <mxGeometry x="390" y="400" width="90" height="25" as="geometry" />
        </mxCell>
        <mxCell id="QxhkhDO3bu-SJ8pNpTHq-90" value="логи" style="rounded=1;whiteSpace=wrap;html=1;shadow=0;fillColor=#ffe6cc;strokeColor=#d79b00;" vertex="1" parent="1">
          <mxGeometry x="590" y="680" width="160" height="40" as="geometry" />
        </mxCell>
        <mxCell id="QxhkhDO3bu-SJ8pNpTHq-96" value="" style="group" vertex="1" connectable="0" parent="1">
          <mxGeometry x="1330" y="20" width="220" height="190" as="geometry" />
        </mxCell>
        <mxCell id="QxhkhDO3bu-SJ8pNpTHq-95" value="" style="ellipse;shape=cloud;whiteSpace=wrap;html=1;shadow=0;" vertex="1" parent="QxhkhDO3bu-SJ8pNpTHq-96">
          <mxGeometry width="220" height="190" as="geometry" />
        </mxCell>
        <mxCell id="QxhkhDO3bu-SJ8pNpTHq-94" value="" style="shape=cylinder3;whiteSpace=wrap;html=1;boundedLbl=1;backgroundOutline=1;size=15;shadow=0;" vertex="1" parent="QxhkhDO3bu-SJ8pNpTHq-96">
          <mxGeometry x="68.75" y="40" width="82.5" height="110" as="geometry" />
        </mxCell>
        <mxCell id="QxhkhDO3bu-SJ8pNpTHq-97" value="" style="shape=flexArrow;endArrow=classic;startArrow=classic;html=1;strokeWidth=1;entryX=0.55;entryY=0.95;entryDx=0;entryDy=0;entryPerimeter=0;exitX=0.5;exitY=0;exitDx=0;exitDy=0;" edge="1" parent="1" source="QxhkhDO3bu-SJ8pNpTHq-19" target="QxhkhDO3bu-SJ8pNpTHq-95">
          <mxGeometry width="50" height="50" relative="1" as="geometry">
            <mxPoint x="1410" y="310" as="sourcePoint" />
            <mxPoint x="1460" y="260" as="targetPoint" />
            <Array as="points">
              <mxPoint x="1415" y="300" />
              <mxPoint x="1451" y="300" />
            </Array>
          </mxGeometry>
        </mxCell>
        <mxCell id="QxhkhDO3bu-SJ8pNpTHq-26" value="" style="endArrow=classic;html=1;entryX=0;entryY=0.5;entryDx=0;entryDy=0;exitX=1;exitY=0.5;exitDx=0;exitDy=0;jumpStyle=arc;jumpSize=23;" edge="1" parent="1" target="QxhkhDO3bu-SJ8pNpTHq-25">
          <mxGeometry width="50" height="50" relative="1" as="geometry">
            <mxPoint x="1290" y="270" as="sourcePoint" />
            <mxPoint x="1390" y="245" as="targetPoint" />
          </mxGeometry>
        </mxCell>
        <mxCell id="QxhkhDO3bu-SJ8pNpTHq-98" value="Actor" style="shape=umlActor;verticalLabelPosition=bottom;verticalAlign=top;html=1;outlineConnect=0;" vertex="1" parent="1">
          <mxGeometry x="1310" y="825" width="60" height="130" as="geometry" />
        </mxCell>
        <mxCell id="QxhkhDO3bu-SJ8pNpTHq-99" value="" style="ellipse;shape=cloud;whiteSpace=wrap;html=1;shadow=0;" vertex="1" parent="1">
          <mxGeometry x="587.11" y="750" width="115.79" height="100" as="geometry" />
        </mxCell>
        <mxCell id="QxhkhDO3bu-SJ8pNpTHq-100" value="" style="shape=cylinder3;whiteSpace=wrap;html=1;boundedLbl=1;backgroundOutline=1;size=15;shadow=0;" vertex="1" parent="1">
          <mxGeometry x="626.25" y="775" width="37.5" height="50" as="geometry" />
        </mxCell>
        <mxCell id="QxhkhDO3bu-SJ8pNpTHq-101" value="" style="endArrow=classic;html=1;strokeWidth=1;entryX=0;entryY=0;entryDx=0;entryDy=30;entryPerimeter=0;" edge="1" parent="1" target="QxhkhDO3bu-SJ8pNpTHq-100">
          <mxGeometry width="50" height="50" relative="1" as="geometry">
            <mxPoint x="570" y="700" as="sourcePoint" />
            <mxPoint x="590" y="780" as="targetPoint" />
            <Array as="points">
              <mxPoint x="570" y="800" />
            </Array>
          </mxGeometry>
        </mxCell>
        <mxCell id="QxhkhDO3bu-SJ8pNpTHq-102" value="Панель администратора" style="rounded=1;whiteSpace=wrap;html=1;shadow=0;" vertex="1" parent="1">
          <mxGeometry x="1120" y="850" width="120" height="60" as="geometry" />
        </mxCell>
        <mxCell id="QxhkhDO3bu-SJ8pNpTHq-104" value="данные по пользователю" style="rounded=1;whiteSpace=wrap;html=1;shadow=0;" vertex="1" parent="1">
          <mxGeometry x="920" y="820" width="120" height="60" as="geometry" />
        </mxCell>
        <mxCell id="QxhkhDO3bu-SJ8pNpTHq-105" value="общая статистика&lt;br&gt;аналитика" style="rounded=1;whiteSpace=wrap;html=1;shadow=0;" vertex="1" parent="1">
          <mxGeometry x="920" y="890" width="120" height="60" as="geometry" />
        </mxCell>
        <mxCell id="QxhkhDO3bu-SJ8pNpTHq-108" value="" style="shape=flexArrow;endArrow=classic;startArrow=classic;html=1;strokeWidth=1;exitX=0.875;exitY=0.5;exitDx=0;exitDy=0;exitPerimeter=0;" edge="1" parent="1" source="QxhkhDO3bu-SJ8pNpTHq-99">
          <mxGeometry width="50" height="50" relative="1" as="geometry">
            <mxPoint x="750" y="870" as="sourcePoint" />
            <mxPoint x="900" y="890" as="targetPoint" />
            <Array as="points">
              <mxPoint x="820" y="800" />
              <mxPoint x="820" y="890" />
            </Array>
          </mxGeometry>
        </mxCell>
        <mxCell id="QxhkhDO3bu-SJ8pNpTHq-109" value="уведомление о том что чел пришёл&lt;br&gt;(ваш микрочел вошел/вышел из школы в TIME, не волнуйтесь)" style="rounded=1;whiteSpace=wrap;html=1;shadow=0;" vertex="1" parent="1">
          <mxGeometry x="560" y="1210" width="180" height="90" as="geometry" />
        </mxCell>
        <mxCell id="QxhkhDO3bu-SJ8pNpTHq-114" value="" style="ellipse;shape=cloud;whiteSpace=wrap;html=1;shadow=0;" vertex="1" parent="1">
          <mxGeometry x="754.21" y="970" width="115.79" height="100" as="geometry" />
        </mxCell>
        <mxCell id="QxhkhDO3bu-SJ8pNpTHq-113" value="" style="shape=cylinder3;whiteSpace=wrap;html=1;boundedLbl=1;backgroundOutline=1;size=15;shadow=0;" vertex="1" parent="1">
          <mxGeometry x="793.36" y="1000" width="37.5" height="50" as="geometry" />
        </mxCell>
        <mxCell id="QxhkhDO3bu-SJ8pNpTHq-120" style="edgeStyle=orthogonalEdgeStyle;rounded=0;jumpStyle=arc;jumpSize=23;orthogonalLoop=1;jettySize=auto;html=1;exitX=0.5;exitY=1;exitDx=0;exitDy=0;entryX=0.5;entryY=0;entryDx=0;entryDy=0;startArrow=oval;startFill=1;strokeWidth=1;" edge="1" parent="1" source="QxhkhDO3bu-SJ8pNpTHq-115" target="QxhkhDO3bu-SJ8pNpTHq-119">
          <mxGeometry relative="1" as="geometry" />
        </mxCell>
        <mxCell id="QxhkhDO3bu-SJ8pNpTHq-115" value="почта ,телефон? по ID" style="rounded=1;whiteSpace=wrap;html=1;shadow=0;" vertex="1" parent="1">
          <mxGeometry x="590" y="990" width="120" height="60" as="geometry" />
        </mxCell>
        <mxCell id="QxhkhDO3bu-SJ8pNpTHq-122" style="edgeStyle=orthogonalEdgeStyle;rounded=0;jumpStyle=arc;jumpSize=23;orthogonalLoop=1;jettySize=auto;html=1;exitX=0.5;exitY=1;exitDx=0;exitDy=0;entryX=0.5;entryY=0;entryDx=0;entryDy=0;startArrow=oval;startFill=1;strokeWidth=1;" edge="1" parent="1" source="QxhkhDO3bu-SJ8pNpTHq-116" target="QxhkhDO3bu-SJ8pNpTHq-115">
          <mxGeometry relative="1" as="geometry" />
        </mxCell>
        <mxCell id="QxhkhDO3bu-SJ8pNpTHq-116" value="ID пользователя" style="rounded=0;whiteSpace=wrap;html=1;shadow=0;" vertex="1" parent="1">
          <mxGeometry x="610" y="910" width="80" height="40" as="geometry" />
        </mxCell>
        <mxCell id="QxhkhDO3bu-SJ8pNpTHq-118" value="" style="shape=flexArrow;endArrow=classic;startArrow=classic;html=1;strokeWidth=1;entryX=0;entryY=0;entryDx=0;entryDy=30;entryPerimeter=0;" edge="1" parent="1" source="QxhkhDO3bu-SJ8pNpTHq-115" target="QxhkhDO3bu-SJ8pNpTHq-113">
          <mxGeometry width="50" height="50" relative="1" as="geometry">
            <mxPoint x="710" y="1070" as="sourcePoint" />
            <mxPoint x="780.7106781186548" y="1020" as="targetPoint" />
          </mxGeometry>
        </mxCell>
        <mxCell id="QxhkhDO3bu-SJ8pNpTHq-121" style="edgeStyle=orthogonalEdgeStyle;rounded=0;jumpStyle=arc;jumpSize=23;orthogonalLoop=1;jettySize=auto;html=1;exitX=0.5;exitY=1;exitDx=0;exitDy=0;startArrow=oval;startFill=1;strokeWidth=1;" edge="1" parent="1" source="QxhkhDO3bu-SJ8pNpTHq-119" target="QxhkhDO3bu-SJ8pNpTHq-109">
          <mxGeometry relative="1" as="geometry" />
        </mxCell>
        <mxCell id="QxhkhDO3bu-SJ8pNpTHq-119" value="почта?, sms?!!" style="rounded=0;whiteSpace=wrap;html=1;shadow=0;" vertex="1" parent="1">
          <mxGeometry x="575" y="1110" width="150" height="40" as="geometry" />
        </mxCell>
        <mxCell id="QxhkhDO3bu-SJ8pNpTHq-123" value="" style="endArrow=classic;html=1;strokeWidth=1;entryX=0.5;entryY=0;entryDx=0;entryDy=0;" edge="1" parent="1" target="QxhkhDO3bu-SJ8pNpTHq-116">
          <mxGeometry width="50" height="50" relative="1" as="geometry">
            <mxPoint x="570" y="780" as="sourcePoint" />
            <mxPoint x="460" y="820" as="targetPoint" />
            <Array as="points">
              <mxPoint x="570" y="890" />
              <mxPoint x="650" y="890" />
            </Array>
          </mxGeometry>
        </mxCell>
      </root>
    </mxGraphModel>
  </diagram>
</mxfile>
